<?xml version="1.0" encoding="UTF-8" standalone="no"?>
<!-- Created with Inkscape (http://www.inkscape.org/) -->

<svg
   xmlns:dc="http://purl.org/dc/elements/1.1/"
   xmlns:cc="http://creativecommons.org/ns#"
   xmlns:rdf="http://www.w3.org/1999/02/22-rdf-syntax-ns#"
   xmlns:svg="http://www.w3.org/2000/svg"
   xmlns="http://www.w3.org/2000/svg"
   xmlns:sodipodi="http://sodipodi.sourceforge.net/DTD/sodipodi-0.dtd"
   xmlns:inkscape="http://www.inkscape.org/namespaces/inkscape"
   width="275"
   height="750"
   id="svg2"
   version="1.1"
   inkscape:version="0.48.4 r9939"
   sodipodi:docname="New document 1">
  <defs
     id="defs4">
    <inkscape:perspective
       sodipodi:type="inkscape:persp3d"
       inkscape:vp_x="0 : 526.18109 : 1"
       inkscape:vp_y="0 : 1000 : 0"
       inkscape:vp_z="744.09448 : 526.18109 : 1"
       inkscape:persp3d-origin="372.04724 : 350.78739 : 1"
       id="perspective2985" />
  </defs>
  <sodipodi:namedview
     id="base"
     pagecolor="#ffffff"
     bordercolor="#666666"
     borderopacity="1.0"
     inkscape:pageopacity="0.0"
     inkscape:pageshadow="2"
     inkscape:zoom="0.35"
     inkscape:cx="-88.503298"
     inkscape:cy="358.95013"
     inkscape:document-units="px"
     inkscape:current-layer="layer1"
     showgrid="false"
     inkscape:window-width="1366"
     inkscape:window-height="706"
     inkscape:window-x="-8"
     inkscape:window-y="-8"
     inkscape:window-maximized="1" />
  <metadata
     id="metadata7">
    <rdf:RDF>
      <cc:Work
         rdf:about="">
        <dc:format>image/svg+xml</dc:format>
        <dc:type
           rdf:resource="http://purl.org/dc/dcmitype/StillImage" />
        <dc:title></dc:title>
      </cc:Work>
    </rdf:RDF>
  </metadata>
  <g
     inkscape:label="Layer 1"
     inkscape:groupmode="layer"
     id="layer1"
     transform="translate(0,-302.36218)">
    <g
       id="g3081">
      <rect
         rx="29.999998"
         ry="30"
         y="302.36218"
         x="0"
         height="750"
         width="275"
         id="rect3052"
         style="fill:#000000" />
      <path
         sodipodi:type="arc"
         style="fill:#ffff00"
         id="path3060"
         sodipodi:cx="357.59399"
         sodipodi:cy="397.78333"
         sodipodi:rx="129.29953"
         sodipodi:ry="129.29953"
         d="m 486.89352,397.78333 c 0,71.41015 -57.88937,129.29953 -129.29953,129.29953 -71.41015,0 -129.29953,-57.88938 -129.29953,-129.29953 0,-71.41016 57.88938,-129.29953 129.29953,-129.29953 71.41016,0 129.29953,57.88937 129.29953,129.29953 z"
         transform="matrix(0.67633656,0,0,0.67633656,-104.40389,408.87678)" />
      <path
         transform="matrix(0.67672326,0,0,0.67672326,-104.49217,177.67295)"
         d="m 486.89352,397.78333 c 0,71.41015 -57.88937,129.29953 -129.29953,129.29953 -71.41015,0 -129.29953,-57.88938 -129.29953,-129.29953 0,-71.41016 57.88938,-129.29953 129.29953,-129.29953 71.41016,0 129.29953,57.88937 129.29953,129.29953 z"
         sodipodi:ry="129.29953"
         sodipodi:rx="129.29953"
         sodipodi:cy="397.78333"
         sodipodi:cx="357.59399"
         id="path3077"
         style="fill:#ff0000"
         sodipodi:type="arc" />
      <path
         sodipodi:type="arc"
         style="fill:#00ff00"
         id="path3079"
         sodipodi:cx="357.59399"
         sodipodi:cy="397.78333"
         sodipodi:rx="129.29953"
         sodipodi:ry="129.29953"
         d="m 486.89352,397.78333 c 0,71.41015 -57.88937,129.29953 -129.29953,129.29953 -71.41015,0 -129.29953,-57.88938 -129.29953,-129.29953 0,-71.41016 57.88938,-129.29953 129.29953,-129.29953 71.41016,0 129.29953,57.88937 129.29953,129.29953 z"
         transform="matrix(0.67672326,0,0,0.67672326,-104.49217,639.67295)" />
    </g>
  </g>
</svg>
